<svg xmlns="http://www.w3.org/2000/svg" viewBox="0 0 806.51 806.51"><defs><style>.cls-1{fill:none;}.cls-2{fill:#ed8074;}</style></defs><g id="Camada_2" data-name="Camada 2"><g id="Camada_1-2" data-name="Camada 1"><rect class="cls-1" width="806.51" height="806.51"/><path class="cls-2" d="M398.48,440l-37.37,37.37h0L235.53,603l-75.4,75.4a340.21,340.21,0,0,1-39-33.34l0,0-1.91-1.91-.15-.16a52.41,52.41,0,0,1-1.76-69.9l44.18-44.18,73.16-73.16L287,403.26l-36-36c-.35-.38-.72-.76-1.09-1.13s-.75-.74-1.13-1.09l-14.22-14.22-73.16-73.16L117.23,233.5a52.43,52.43,0,0,1,1.81-70,.47.47,0,0,1,.1-.1c.63-.64,1.27-1.28,1.91-1.91l0,0a340.21,340.21,0,0,1,39.05-33.34l75.4,75.4L361.11,329.14l21.7,21.7,15,15,.63.63A52.39,52.39,0,0,1,398.48,440Z"/><path class="cls-2" d="M701.78,403.25A340.64,340.64,0,0,1,361.11,743.93V686.76a52.44,52.44,0,0,1,41.39-51.25l2.79-.51a234.2,234.2,0,0,0,81.39-32,236.88,236.88,0,0,0,74.12-74.12,235.73,235.73,0,0,0,0-251.15,236.78,236.78,0,0,0-74.12-74.12,234.2,234.2,0,0,0-81.39-32.05L402.5,171a52.44,52.44,0,0,1-41.39-51.26V62.58A340.76,340.76,0,0,1,697.77,350.84,343,343,0,0,1,701.78,403.25Z"/><line class="cls-2" x1="251.01" y1="367.28" x2="248.79" y2="365.06"/></g></g></svg>
